<?xml version="1.0" encoding="utf-8" ?>
<svg baseProfile="full" height="532px" version="1.1" width="523px" xmlns="http://www.w3.org/2000/svg" xmlns:ev="http://www.w3.org/2001/xml-events" xmlns:xlink="http://www.w3.org/1999/xlink"><defs /><path d="M 155,484 L 158,484 L 159,485 L 161,485 L 162,486 L 164,486 L 165,487 L 166,487 L 167,488 L 169,488 L 170,489 L 171,489 L 172,490 L 173,490 L 174,491 L 175,491 L 176,492 L 177,492 L 178,493 L 179,493 L 180,494 L 181,494 L 182,495 L 183,495 L 184,496 L 185,496 L 186,497 L 187,497 L 188,498 L 189,498 L 190,499 L 191,499 L 192,500 L 193,500 L 194,501 L 195,501 L 196,502 L 197,502 L 198,503 L 199,503 L 200,504 L 201,504 L 202,505 L 203,505 L 204,506 L 205,506 L 206,507 L 207,507 L 208,508 L 209,508 L 210,509 L 211,509 L 212,510 L 213,510 L 214,511 L 215,511 L 216,512 L 217,512 L 218,513 L 219,513 L 220,514 L 221,514 L 222,515 L 223,515 L 224,516 L 225,516 L 226,517 L 227,517 L 228,518 L 229,518 L 230,519 L 231,519 L 232,520 L 233,520 L 234,521 L 235,521 L 236,522 L 237,522 L 238,523 L 239,523 L 240,524 L 241,524 L 242,525 L 244,525 L 245,526 L 246,526 L 247,527 L 248,527 L 249,528 L 250,528 L 251,529 L 252,529 L 253,530 L 255,530 L 256,531 L 255,530 L 253,530 L 252,529 L 251,529 L 250,528 L 249,528 L 248,527 L 247,527 L 246,526 L 245,526 L 244,525 L 242,525 L 241,524 L 240,524 L 239,523 L 238,523 L 237,522 L 236,522 L 235,521 L 234,521 L 233,520 L 232,520 L 231,519 L 230,519 L 229,518 L 228,518 L 227,517 L 226,517 L 225,516 L 224,516 L 223,515 L 222,515 L 221,514 L 220,514 L 219,513 L 218,513 L 217,512 L 216,512 L 215,511 L 214,511 L 213,510 L 212,510 L 211,509 L 210,509 L 209,508 L 208,508 L 207,507 L 206,507 L 205,506 L 204,506 L 203,505 L 202,505 L 201,504 L 200,504 L 199,503 L 198,503 L 197,502 L 196,502 L 195,501 L 194,501 L 193,500 L 192,500 L 191,499 L 190,499 L 189,498 L 188,498 L 187,497 L 186,497 L 185,496 L 184,496 L 183,495 L 182,495 L 181,494 L 180,494 L 179,493 L 178,493 L 177,492 L 176,492 L 175,491 L 174,491 L 173,490 L 172,490 L 171,489 L 170,489 L 169,488 L 167,488 L 166,487 L 165,487 L 164,486 L 162,486 L 161,485 L 159,485 L 158,484 Z" fill="none" stroke="white" stroke-width="2" /><path d="M 151,481 L 152,481 Z" fill="none" stroke="white" stroke-width="2" /><path d="M 194,455 L 193,456 L 192,456 L 191,457 L 189,457 L 188,458 L 187,458 L 186,459 L 185,459 L 184,460 L 182,460 L 181,461 L 180,461 L 179,462 L 178,462 L 177,463 L 176,463 L 175,464 L 173,464 L 172,465 L 171,465 L 170,466 L 169,466 L 168,467 L 166,467 L 165,468 L 164,468 L 163,469 L 162,469 L 161,470 L 159,470 L 158,471 L 157,471 L 156,472 L 155,472 L 154,473 L 152,473 L 151,474 L 150,474 L 149,475 L 148,475 L 147,476 L 146,476 L 145,477 L 143,477 L 142,478 L 142,479 L 141,480 L 140,480 L 139,479 L 140,478 L 139,478 L 139,480 L 141,480 L 142,479 L 143,480 L 144,479 L 145,479 L 146,480 L 147,480 L 146,480 L 145,479 L 144,479 L 143,480 L 142,479 L 142,478 L 143,477 L 145,477 L 146,476 L 147,476 L 148,475 L 149,475 L 150,474 L 151,474 L 152,473 L 154,473 L 155,472 L 156,472 L 157,471 L 158,471 L 159,470 L 161,470 L 162,469 L 163,469 L 164,468 L 165,468 L 166,467 L 168,467 L 169,466 L 170,466 L 171,465 L 172,465 L 173,464 L 175,464 L 176,463 L 177,463 L 178,462 L 179,462 L 180,461 L 181,461 L 182,460 L 184,460 L 185,459 L 186,459 L 187,458 L 188,458 L 189,457 L 191,457 L 192,456 L 193,456 Z" fill="none" stroke="white" stroke-width="2" /><path d="M 0,363 L 0,377 L 1,378 L 1,392 L 2,393 L 2,407 L 3,408 L 3,422 L 4,423 L 4,427 L 7,430 L 8,430 L 9,431 L 10,431 L 11,432 L 12,432 L 13,433 L 14,433 L 16,435 L 17,435 L 18,436 L 19,436 L 20,437 L 21,437 L 23,439 L 24,439 L 25,440 L 26,440 L 27,441 L 28,441 L 29,442 L 30,442 L 32,444 L 33,444 L 34,445 L 35,445 L 36,446 L 37,446 L 38,447 L 39,447 L 41,449 L 42,449 L 43,450 L 44,450 L 45,451 L 46,451 L 48,453 L 49,453 L 50,454 L 51,454 L 52,455 L 53,455 L 54,456 L 55,456 L 57,458 L 58,458 L 59,459 L 60,459 L 61,460 L 62,460 L 63,461 L 64,461 L 66,463 L 67,463 L 68,464 L 69,464 L 70,465 L 71,465 L 72,466 L 73,466 L 74,467 L 75,467 L 77,469 L 78,469 L 79,470 L 80,470 L 81,471 L 82,471 L 83,472 L 84,472 L 85,473 L 86,473 L 87,474 L 88,474 L 89,475 L 90,475 L 91,476 L 92,476 L 93,477 L 95,477 L 96,478 L 97,478 L 98,479 L 100,479 L 101,480 L 104,480 L 105,481 L 110,481 L 111,482 L 148,482 L 149,483 L 153,483 L 149,483 L 148,482 L 111,482 L 110,481 L 105,481 L 104,480 L 101,480 L 100,479 L 98,479 L 97,478 L 96,478 L 95,477 L 93,477 L 92,476 L 91,476 L 90,475 L 89,475 L 88,474 L 87,474 L 86,473 L 85,473 L 84,472 L 83,472 L 82,471 L 81,471 L 80,470 L 79,470 L 77,468 L 76,468 L 75,467 L 74,467 L 73,466 L 72,466 L 71,465 L 70,465 L 69,464 L 68,464 L 66,462 L 65,462 L 64,461 L 63,461 L 62,460 L 61,460 L 59,458 L 58,458 L 57,457 L 56,457 L 55,456 L 54,456 L 53,455 L 52,455 L 51,454 L 50,454 L 48,452 L 47,452 L 46,451 L 45,451 L 44,450 L 43,450 L 41,448 L 40,448 L 39,447 L 38,447 L 37,446 L 36,446 L 34,444 L 33,444 L 32,443 L 31,443 L 30,442 L 29,442 L 28,441 L 27,441 L 25,439 L 24,439 L 23,438 L 22,438 L 21,437 L 20,437 L 19,436 L 18,436 L 16,434 L 15,434 L 14,433 L 13,433 L 12,432 L 11,432 L 10,431 L 9,431 L 7,429 L 6,429 L 4,427 L 4,423 L 3,422 L 3,408 L 2,407 L 2,393 L 1,392 L 1,378 L 0,377 Z" fill="none" stroke="white" stroke-width="2" /><path d="M 194,343 L 193,344 L 191,344 L 190,345 L 189,345 L 188,346 L 186,346 L 185,347 L 184,347 L 183,348 L 182,348 L 181,349 L 180,349 L 179,350 L 178,350 L 177,351 L 176,351 L 175,352 L 174,352 L 172,354 L 171,354 L 170,355 L 169,355 L 168,356 L 167,356 L 165,358 L 164,358 L 162,360 L 161,360 L 159,362 L 158,362 L 156,364 L 155,364 L 151,368 L 150,368 L 147,371 L 147,372 L 145,374 L 145,375 L 144,376 L 144,377 L 143,378 L 143,381 L 142,382 L 142,387 L 141,388 L 141,395 L 140,396 L 140,409 L 139,410 L 139,426 L 140,427 L 140,433 L 141,434 L 141,436 L 144,436 L 145,435 L 146,435 L 147,434 L 148,434 L 149,433 L 150,433 L 151,432 L 152,432 L 153,431 L 154,431 L 155,430 L 156,430 L 157,429 L 158,429 L 159,428 L 160,428 L 161,427 L 162,427 L 163,426 L 164,426 L 165,425 L 166,425 L 167,424 L 168,424 L 169,423 L 170,423 L 171,422 L 172,422 L 174,420 L 175,420 L 176,419 L 177,419 L 178,418 L 179,418 L 180,417 L 181,417 L 183,415 L 184,415 L 186,413 L 187,413 L 189,411 L 190,411 L 194,407 L 195,407 L 196,406 L 196,405 L 199,402 L 199,401 L 201,399 L 201,398 L 202,397 L 202,395 L 203,394 L 203,392 L 204,391 L 204,386 L 205,385 L 205,353 L 204,352 L 204,348 L 203,347 L 203,346 L 202,345 L 202,344 L 201,344 L 200,343 Z" fill="none" stroke="white" stroke-width="2" /><path d="M 322,341 L 321,342 L 320,342 L 320,343 L 319,344 L 319,346 L 318,347 L 318,352 L 317,353 L 317,386 L 318,387 L 318,392 L 319,393 L 319,396 L 320,397 L 320,398 L 321,399 L 321,400 L 326,405 L 327,405 L 331,409 L 332,409 L 335,412 L 336,412 L 339,415 L 340,415 L 342,417 L 343,417 L 345,419 L 346,419 L 348,421 L 349,421 L 351,423 L 352,423 L 354,425 L 355,425 L 357,427 L 358,427 L 359,428 L 360,428 L 362,430 L 363,430 L 364,431 L 365,431 L 366,432 L 367,432 L 368,433 L 369,433 L 370,434 L 371,434 L 372,435 L 373,435 L 374,436 L 376,436 L 377,437 L 379,437 L 380,436 L 380,429 L 381,428 L 381,389 L 380,388 L 380,383 L 379,382 L 379,379 L 378,378 L 378,376 L 377,375 L 377,374 L 375,372 L 375,371 L 368,364 L 367,364 L 365,362 L 364,362 L 362,360 L 361,360 L 359,358 L 358,358 L 356,356 L 355,356 L 354,355 L 353,355 L 352,354 L 351,354 L 349,352 L 348,352 L 347,351 L 346,351 L 345,350 L 344,350 L 343,349 L 342,349 L 341,348 L 340,348 L 339,347 L 338,347 L 337,346 L 336,346 L 335,345 L 334,345 L 333,344 L 331,344 L 330,343 L 329,343 L 328,342 L 326,342 L 325,341 Z" fill="none" stroke="white" stroke-width="2" /><path d="M 477,340 L 476,341 L 475,341 L 474,342 L 473,342 L 472,343 L 471,343 L 470,344 L 469,344 L 468,345 L 467,345 L 466,346 L 465,346 L 463,348 L 462,348 L 461,349 L 460,349 L 458,351 L 457,351 L 456,352 L 455,352 L 453,354 L 452,354 L 450,356 L 449,356 L 448,357 L 447,357 L 445,359 L 444,359 L 441,362 L 440,362 L 438,364 L 437,364 L 434,367 L 433,367 L 430,370 L 430,371 L 429,372 L 429,373 L 428,374 L 428,377 L 427,378 L 427,382 L 426,383 L 426,391 L 425,392 L 425,424 L 426,425 L 426,428 L 427,429 L 427,430 L 428,431 L 431,431 L 432,430 L 435,430 L 436,429 L 437,429 L 438,428 L 440,428 L 441,427 L 442,427 L 443,426 L 444,426 L 445,425 L 446,425 L 447,424 L 448,424 L 449,423 L 450,423 L 451,422 L 452,422 L 453,421 L 454,421 L 455,420 L 456,420 L 458,418 L 459,418 L 460,417 L 461,417 L 464,414 L 465,414 L 467,412 L 468,412 L 475,405 L 475,404 L 476,403 L 476,402 L 477,401 L 477,399 L 478,398 L 478,391 L 479,390 L 479,348 L 478,347 L 478,341 Z" fill="none" stroke="white" stroke-width="2" /><path d="M 45,340 L 44,341 L 43,341 L 43,342 L 42,343 L 42,353 L 41,354 L 41,365 L 42,366 L 42,383 L 43,384 L 43,393 L 44,394 L 44,398 L 45,399 L 45,401 L 46,402 L 46,403 L 47,404 L 47,405 L 49,407 L 50,407 L 54,411 L 55,411 L 58,414 L 59,414 L 61,416 L 62,416 L 64,418 L 65,418 L 67,420 L 68,420 L 70,422 L 71,422 L 73,424 L 74,424 L 75,425 L 76,425 L 77,426 L 78,426 L 80,428 L 81,428 L 82,429 L 83,429 L 84,430 L 85,430 L 86,431 L 87,431 L 88,432 L 90,432 L 91,433 L 94,433 L 94,432 L 95,431 L 95,427 L 96,426 L 96,385 L 95,384 L 95,377 L 94,376 L 94,373 L 93,372 L 93,370 L 88,365 L 87,365 L 85,363 L 84,363 L 82,361 L 81,361 L 79,359 L 78,359 L 77,358 L 76,358 L 74,356 L 73,356 L 71,354 L 70,354 L 69,353 L 68,353 L 67,352 L 66,352 L 64,350 L 63,350 L 62,349 L 61,349 L 60,348 L 59,348 L 57,346 L 56,346 L 55,345 L 54,345 L 53,344 L 52,344 L 51,343 L 50,343 L 49,342 L 48,342 L 47,341 L 46,341 Z" fill="none" stroke="white" stroke-width="2" /><path d="M 121,273 L 120,274 L 119,274 L 118,275 L 117,275 L 116,276 L 115,276 L 114,277 L 113,277 L 112,278 L 111,278 L 110,279 L 109,279 L 108,280 L 107,280 L 106,281 L 105,281 L 104,282 L 103,282 L 102,283 L 101,283 L 100,284 L 99,284 L 98,285 L 97,285 L 96,286 L 95,286 L 94,287 L 93,287 L 92,288 L 91,288 L 89,290 L 88,290 L 87,291 L 86,291 L 85,292 L 84,292 L 83,293 L 82,293 L 81,294 L 80,294 L 78,296 L 77,296 L 76,297 L 75,297 L 73,299 L 72,299 L 69,302 L 69,303 L 68,304 L 68,305 L 69,306 L 69,307 L 72,310 L 73,310 L 75,312 L 76,312 L 79,315 L 80,315 L 82,317 L 83,317 L 84,318 L 85,318 L 87,320 L 88,320 L 90,322 L 91,322 L 92,323 L 93,323 L 94,324 L 95,324 L 97,326 L 98,326 L 99,327 L 100,327 L 101,328 L 102,328 L 103,329 L 104,329 L 105,330 L 106,330 L 107,331 L 108,331 L 109,332 L 110,332 L 111,333 L 112,333 L 113,334 L 115,334 L 116,335 L 122,335 L 123,334 L 125,334 L 126,333 L 128,333 L 129,332 L 130,332 L 131,331 L 133,331 L 134,330 L 135,330 L 136,329 L 137,329 L 138,328 L 139,328 L 140,327 L 142,327 L 143,326 L 144,326 L 145,325 L 146,325 L 147,324 L 148,324 L 149,323 L 150,323 L 151,322 L 152,322 L 153,321 L 154,321 L 155,320 L 156,320 L 158,318 L 159,318 L 160,317 L 161,317 L 162,316 L 163,316 L 164,315 L 165,315 L 167,313 L 168,313 L 169,312 L 170,312 L 171,311 L 172,311 L 174,309 L 175,309 L 178,306 L 178,304 L 176,302 L 175,302 L 173,300 L 172,300 L 170,298 L 169,298 L 168,297 L 167,297 L 165,295 L 164,295 L 163,294 L 162,294 L 160,292 L 159,292 L 158,291 L 157,291 L 156,290 L 155,290 L 153,288 L 152,288 L 151,287 L 150,287 L 149,286 L 148,286 L 147,285 L 146,285 L 145,284 L 144,284 L 143,283 L 142,283 L 141,282 L 140,282 L 139,281 L 138,281 L 137,280 L 136,280 L 134,278 L 133,278 L 132,277 L 131,277 L 130,276 L 129,276 L 128,275 L 127,275 L 126,274 L 125,274 L 124,273 Z" fill="none" stroke="white" stroke-width="2" /><path d="M 400,272 L 399,273 L 398,273 L 397,274 L 396,274 L 395,275 L 394,275 L 392,277 L 391,277 L 390,278 L 389,278 L 388,279 L 387,279 L 386,280 L 385,280 L 384,281 L 383,281 L 382,282 L 381,282 L 379,284 L 378,284 L 377,285 L 376,285 L 375,286 L 374,286 L 373,287 L 372,287 L 371,288 L 370,288 L 369,289 L 368,289 L 366,291 L 365,291 L 364,292 L 363,292 L 362,293 L 361,293 L 360,294 L 359,294 L 357,296 L 356,296 L 355,297 L 354,297 L 353,298 L 352,298 L 350,300 L 349,300 L 347,302 L 346,302 L 343,305 L 344,306 L 344,307 L 345,308 L 346,308 L 348,310 L 349,310 L 351,312 L 352,312 L 354,314 L 355,314 L 356,315 L 357,315 L 359,317 L 360,317 L 361,318 L 362,318 L 364,320 L 365,320 L 366,321 L 367,321 L 368,322 L 369,322 L 371,324 L 372,324 L 373,325 L 374,325 L 375,326 L 376,326 L 377,327 L 378,327 L 380,329 L 381,329 L 382,330 L 383,330 L 384,331 L 385,331 L 386,332 L 387,332 L 389,334 L 390,334 L 391,335 L 392,335 L 393,336 L 394,336 L 395,337 L 396,337 L 398,339 L 400,339 L 401,338 L 402,338 L 403,337 L 404,337 L 405,336 L 406,336 L 407,335 L 408,335 L 409,334 L 410,334 L 412,332 L 413,332 L 414,331 L 415,331 L 416,330 L 417,330 L 418,329 L 419,329 L 420,328 L 421,328 L 422,327 L 423,327 L 425,325 L 426,325 L 427,324 L 428,324 L 429,323 L 430,323 L 432,321 L 433,321 L 434,320 L 435,320 L 436,319 L 437,319 L 439,317 L 440,317 L 441,316 L 442,316 L 444,314 L 445,314 L 447,312 L 448,312 L 450,310 L 451,310 L 454,307 L 454,302 L 453,301 L 453,300 L 452,300 L 449,297 L 448,297 L 447,296 L 446,296 L 444,294 L 443,294 L 442,293 L 441,293 L 440,292 L 439,292 L 438,291 L 437,291 L 436,290 L 435,290 L 434,289 L 433,289 L 432,288 L 431,288 L 430,287 L 429,287 L 428,286 L 427,286 L 426,285 L 425,285 L 424,284 L 423,284 L 422,283 L 421,283 L 420,282 L 419,282 L 418,281 L 417,281 L 416,280 L 415,280 L 414,279 L 413,279 L 412,278 L 411,278 L 410,277 L 409,277 L 408,276 L 407,276 L 406,275 L 405,275 L 404,274 L 403,274 L 402,273 L 401,273 Z" fill="none" stroke="white" stroke-width="2" /><path d="M 444,251 L 444,252 L 446,252 L 447,253 L 448,253 L 449,254 L 450,254 L 451,255 L 452,255 L 453,256 L 454,256 L 455,257 L 456,257 L 457,258 L 458,258 L 459,259 L 460,259 L 461,260 L 462,260 L 463,261 L 464,261 L 465,262 L 466,262 L 467,263 L 469,263 L 470,264 L 471,264 L 472,265 L 473,265 L 474,266 L 475,266 L 476,267 L 477,267 L 478,268 L 479,268 L 480,269 L 481,269 L 482,270 L 483,270 L 484,271 L 485,271 L 486,272 L 487,272 L 488,273 L 489,273 L 490,274 L 494,274 L 500,280 L 501,280 L 506,285 L 507,285 L 516,294 L 516,295 L 518,297 L 518,298 L 519,299 L 519,301 L 520,302 L 520,306 L 521,307 L 521,317 L 522,318 L 521,317 L 521,307 L 520,306 L 520,302 L 519,301 L 519,299 L 518,298 L 518,297 L 517,296 L 517,295 L 515,293 L 515,292 L 508,285 L 507,285 L 502,280 L 501,280 L 495,274 L 490,274 L 489,273 L 488,273 L 487,272 L 486,272 L 485,271 L 484,271 L 483,270 L 482,270 L 481,269 L 480,269 L 479,268 L 478,268 L 477,267 L 476,267 L 475,266 L 474,266 L 473,265 L 472,265 L 471,264 L 470,264 L 469,263 L 467,263 L 466,262 L 465,262 L 464,261 L 463,261 L 462,260 L 461,260 L 460,259 L 459,259 L 458,258 L 457,258 L 456,257 L 455,257 L 454,256 L 453,256 L 452,255 L 451,255 L 450,254 L 449,254 L 448,253 L 447,253 L 446,252 L 445,252 Z" fill="none" stroke="white" stroke-width="2" /><path d="M 338,107 L 337,108 L 336,108 L 334,110 L 333,110 L 332,111 L 331,111 L 329,113 L 328,113 L 327,114 L 326,114 L 324,116 L 323,116 L 322,117 L 321,117 L 319,119 L 318,119 L 317,120 L 316,120 L 314,122 L 313,122 L 312,123 L 311,123 L 309,125 L 308,125 L 306,127 L 305,127 L 303,129 L 302,129 L 300,131 L 299,131 L 296,134 L 295,134 L 291,138 L 290,138 L 288,140 L 288,141 L 286,143 L 286,144 L 285,145 L 285,148 L 284,149 L 284,153 L 283,154 L 283,160 L 282,161 L 282,168 L 281,169 L 281,178 L 280,179 L 280,191 L 279,192 L 279,204 L 280,205 L 280,206 L 282,206 L 283,205 L 285,205 L 287,203 L 288,203 L 289,202 L 290,202 L 291,201 L 292,201 L 293,200 L 294,200 L 295,199 L 296,199 L 298,197 L 299,197 L 300,196 L 301,196 L 302,195 L 303,195 L 304,194 L 305,194 L 307,192 L 308,192 L 309,191 L 310,191 L 312,189 L 313,189 L 314,188 L 315,188 L 317,186 L 318,186 L 321,183 L 322,183 L 326,179 L 327,179 L 329,177 L 329,176 L 333,172 L 333,171 L 335,169 L 335,168 L 336,167 L 336,166 L 337,165 L 337,164 L 338,163 L 338,161 L 339,160 L 339,158 L 340,157 L 340,153 L 341,152 L 341,143 L 342,142 L 342,130 L 341,129 L 341,110 L 340,109 L 340,107 Z" fill="none" stroke="white" stroke-width="2" /><path d="M 179,106 L 178,107 L 178,138 L 179,139 L 179,152 L 180,153 L 180,157 L 181,158 L 181,160 L 182,161 L 182,163 L 183,164 L 183,165 L 184,166 L 184,167 L 185,168 L 185,169 L 187,171 L 187,172 L 193,178 L 194,178 L 197,181 L 198,181 L 201,184 L 202,184 L 203,185 L 204,185 L 206,187 L 207,187 L 209,189 L 210,189 L 211,190 L 212,190 L 214,192 L 215,192 L 216,193 L 217,193 L 219,195 L 220,195 L 221,196 L 222,196 L 224,198 L 225,198 L 226,199 L 227,199 L 229,201 L 230,201 L 231,202 L 232,202 L 234,204 L 235,204 L 236,205 L 237,205 L 238,206 L 237,205 L 236,205 L 234,203 L 233,203 L 232,202 L 231,202 L 229,200 L 228,200 L 227,199 L 226,199 L 224,197 L 223,197 L 222,196 L 221,196 L 219,194 L 218,194 L 217,193 L 216,193 L 214,191 L 213,191 L 212,190 L 211,190 L 209,188 L 208,188 L 206,186 L 205,186 L 204,185 L 203,185 L 200,182 L 199,182 L 196,179 L 195,179 L 186,170 L 186,169 L 184,167 L 184,166 L 183,165 L 183,164 L 182,163 L 182,161 L 181,160 L 181,158 L 180,157 L 180,153 L 179,152 L 179,139 L 178,138 L 178,107 L 179,106 L 180,106 L 181,107 L 182,107 L 183,108 L 184,108 L 185,109 L 186,109 L 187,110 L 188,110 L 189,111 L 190,111 L 191,112 L 192,112 L 193,113 L 194,113 L 195,114 L 196,114 L 197,115 L 198,115 L 199,116 L 200,116 L 201,117 L 202,117 L 203,118 L 204,118 L 206,120 L 207,120 L 208,121 L 209,121 L 210,122 L 211,122 L 213,124 L 214,124 L 215,125 L 216,125 L 218,127 L 219,127 L 221,129 L 222,129 L 224,131 L 225,131 L 228,134 L 229,134 L 238,143 L 238,144 L 240,146 L 240,147 L 241,148 L 241,151 L 242,152 L 242,177 L 241,178 L 241,188 L 240,189 L 240,198 L 239,199 L 239,204 L 239,199 L 240,198 L 240,189 L 241,188 L 241,178 L 242,177 L 242,152 L 241,151 L 241,148 L 240,147 L 240,146 L 239,145 L 239,144 L 238,143 L 238,142 L 231,135 L 230,135 L 227,132 L 226,132 L 224,130 L 223,130 L 221,128 L 220,128 L 218,126 L 217,126 L 216,125 L 215,125 L 213,123 L 212,123 L 211,122 L 210,122 L 208,120 L 207,120 L 206,119 L 205,119 L 204,118 L 203,118 L 202,117 L 201,117 L 200,116 L 199,116 L 198,115 L 197,115 L 196,114 L 195,114 L 194,113 L 193,113 L 192,112 L 191,112 L 190,111 L 189,111 L 188,110 L 187,110 L 186,109 L 185,109 L 183,107 L 181,107 L 180,106 Z" fill="none" stroke="white" stroke-width="2" /><path d="M 386,88 L 387,89 Z" fill="none" stroke="white" stroke-width="2" /><path d="M 259,39 L 258,40 L 257,40 L 255,42 L 254,42 L 253,43 L 252,43 L 251,44 L 250,44 L 248,46 L 247,46 L 246,47 L 245,47 L 244,48 L 243,48 L 242,49 L 241,49 L 239,51 L 238,51 L 237,52 L 236,52 L 235,53 L 234,53 L 232,55 L 231,55 L 230,56 L 229,56 L 228,57 L 227,57 L 226,58 L 225,58 L 223,60 L 222,60 L 221,61 L 220,61 L 218,63 L 217,63 L 216,64 L 215,64 L 213,66 L 212,66 L 210,68 L 209,68 L 208,69 L 208,70 L 207,71 L 207,72 L 206,73 L 207,74 L 207,75 L 211,79 L 212,79 L 214,81 L 215,81 L 216,82 L 217,82 L 219,84 L 220,84 L 221,85 L 222,85 L 224,87 L 225,87 L 226,88 L 227,88 L 228,89 L 229,89 L 231,91 L 232,91 L 233,92 L 234,92 L 236,94 L 237,94 L 238,95 L 239,95 L 240,96 L 241,96 L 242,97 L 243,97 L 244,98 L 245,98 L 246,99 L 247,99 L 248,100 L 249,100 L 250,101 L 251,101 L 252,102 L 253,102 L 254,103 L 255,103 L 256,104 L 265,104 L 266,103 L 267,103 L 268,102 L 269,102 L 270,101 L 271,101 L 272,100 L 273,100 L 274,99 L 275,99 L 276,98 L 277,98 L 278,97 L 279,97 L 280,96 L 281,96 L 282,95 L 283,95 L 284,94 L 285,94 L 286,93 L 287,93 L 289,91 L 290,91 L 291,90 L 292,90 L 293,89 L 294,89 L 296,87 L 297,87 L 298,86 L 299,86 L 301,84 L 302,84 L 303,83 L 304,83 L 306,81 L 307,81 L 308,80 L 309,80 L 311,78 L 312,78 L 313,77 L 314,77 L 316,75 L 317,75 L 318,74 L 319,74 L 319,72 L 318,72 L 316,70 L 315,70 L 313,68 L 312,68 L 310,66 L 309,66 L 307,64 L 306,64 L 304,62 L 303,62 L 302,61 L 301,61 L 299,59 L 298,59 L 297,58 L 296,58 L 294,56 L 293,56 L 292,55 L 291,55 L 290,54 L 289,54 L 288,53 L 287,53 L 286,52 L 285,52 L 283,50 L 282,50 L 281,49 L 280,49 L 279,48 L 278,48 L 277,47 L 276,47 L 275,46 L 274,46 L 273,45 L 272,45 L 271,44 L 270,44 L 269,43 L 268,43 L 267,42 L 266,42 L 264,40 L 263,40 L 262,39 Z" fill="none" stroke="white" stroke-width="2" /><path d="M 264,0 L 265,1 L 266,1 L 267,2 L 269,2 L 270,3 L 271,3 L 272,4 L 273,4 L 274,5 L 275,5 L 276,6 L 277,6 L 278,7 L 279,7 L 280,8 L 282,8 L 283,9 L 284,9 L 285,10 L 286,10 L 287,11 L 288,11 L 289,12 L 290,12 L 291,13 L 292,13 L 294,15 L 295,15 L 296,16 L 297,16 L 298,17 L 299,17 L 300,18 L 301,18 L 302,19 L 303,19 L 304,20 L 305,20 L 306,21 L 307,21 L 308,22 L 309,22 L 310,23 L 311,23 L 312,24 L 313,24 L 315,26 L 316,26 L 317,27 L 318,27 L 319,28 L 320,28 L 321,29 L 322,29 L 323,30 L 324,30 L 325,31 L 326,31 L 328,33 L 329,33 L 330,34 L 331,34 L 332,35 L 333,35 L 334,36 L 335,36 L 337,38 L 338,38 L 339,39 L 340,39 L 341,40 L 342,40 L 344,42 L 345,42 L 346,43 L 347,43 L 348,44 L 349,44 L 351,46 L 352,46 L 353,47 L 354,47 L 356,49 L 357,49 L 359,51 L 360,51 L 362,53 L 363,53 L 366,56 L 367,56 L 377,66 L 377,67 L 380,70 L 380,71 L 382,73 L 382,74 L 383,75 L 383,76 L 384,77 L 384,79 L 385,80 L 385,81 L 386,82 L 386,83 L 387,84 L 387,85 L 388,86 L 388,87 L 391,90 L 391,91 L 396,96 L 396,97 L 397,97 L 403,103 L 404,103 L 407,106 L 408,106 L 410,108 L 411,108 L 413,110 L 414,110 L 416,112 L 417,112 L 419,114 L 420,114 L 421,115 L 422,115 L 424,117 L 425,117 L 426,118 L 427,118 L 428,119 L 429,119 L 431,121 L 432,121 L 433,122 L 434,122 L 436,124 L 437,124 L 438,125 L 439,125 L 440,126 L 441,126 L 442,127 L 443,127 L 444,128 L 445,128 L 447,130 L 448,130 L 449,131 L 450,131 L 451,132 L 452,132 L 453,133 L 454,133 L 456,135 L 457,135 L 458,136 L 459,136 L 460,137 L 461,137 L 462,138 L 463,138 L 464,139 L 465,139 L 467,141 L 468,141 L 469,142 L 470,142 L 471,143 L 472,143 L 473,144 L 474,144 L 475,145 L 476,145 L 478,147 L 479,147 L 480,148 L 481,148 L 482,149 L 483,149 L 484,150 L 485,150 L 486,151 L 487,151 L 490,154 L 489,155 L 488,155 L 488,156 L 481,163 L 480,163 L 467,176 L 466,176 L 463,179 L 462,179 L 459,182 L 460,182 L 463,179 L 464,179 L 467,176 L 468,176 L 481,163 L 482,163 L 488,157 L 488,156 L 490,154 L 491,155 L 491,187 L 492,188 L 492,224 L 493,225 L 493,261 L 494,262 L 494,272 L 494,262 L 493,261 L 493,225 L 492,224 L 492,188 L 491,187 L 491,154 L 489,152 L 488,152 L 487,151 L 486,151 L 485,150 L 484,150 L 483,149 L 482,149 L 481,148 L 480,148 L 478,146 L 477,146 L 476,145 L 475,145 L 474,144 L 473,144 L 472,143 L 471,143 L 470,142 L 469,142 L 467,140 L 466,140 L 465,139 L 464,139 L 463,138 L 462,138 L 461,137 L 460,137 L 459,136 L 458,136 L 456,134 L 455,134 L 454,133 L 453,133 L 452,132 L 451,132 L 450,131 L 449,131 L 447,129 L 446,129 L 445,128 L 444,128 L 443,127 L 442,127 L 441,126 L 440,126 L 439,125 L 438,125 L 436,123 L 435,123 L 434,122 L 433,122 L 431,120 L 430,120 L 429,119 L 428,119 L 427,118 L 426,118 L 424,116 L 423,116 L 422,115 L 421,115 L 419,113 L 418,113 L 416,111 L 415,111 L 413,109 L 412,109 L 410,107 L 409,107 L 406,104 L 405,104 L 399,98 L 398,98 L 395,95 L 395,94 L 389,88 L 389,87 L 387,85 L 387,84 L 386,83 L 386,82 L 385,81 L 385,80 L 384,79 L 384,77 L 383,76 L 383,75 L 382,74 L 382,73 L 381,72 L 381,71 L 379,69 L 379,68 L 376,65 L 376,64 L 369,57 L 368,57 L 365,54 L 364,54 L 362,52 L 361,52 L 359,50 L 358,50 L 356,48 L 355,48 L 354,47 L 353,47 L 351,45 L 350,45 L 349,44 L 348,44 L 347,43 L 346,43 L 344,41 L 343,41 L 342,40 L 341,40 L 340,39 L 339,39 L 337,37 L 336,37 L 335,36 L 334,36 L 333,35 L 332,35 L 331,34 L 330,34 L 328,32 L 327,32 L 326,31 L 325,31 L 324,30 L 323,30 L 322,29 L 321,29 L 320,28 L 319,28 L 317,26 L 316,26 L 315,25 L 314,25 L 313,24 L 312,24 L 311,23 L 310,23 L 309,22 L 308,22 L 307,21 L 306,21 L 305,20 L 304,20 L 303,19 L 302,19 L 301,18 L 300,18 L 299,17 L 298,17 L 296,15 L 295,15 L 294,14 L 293,14 L 292,13 L 291,13 L 290,12 L 289,12 L 288,11 L 287,11 L 286,10 L 285,10 L 284,9 L 283,9 L 282,8 L 280,8 L 279,7 L 278,7 L 277,6 L 276,6 L 275,5 L 274,5 L 273,4 L 272,4 L 271,3 L 270,3 L 269,2 L 267,2 L 266,1 L 265,1 Z" fill="none" stroke="white" stroke-width="2" /><path d="M 257,0 L 256,1 L 255,1 L 254,2 L 253,2 L 252,3 L 251,3 L 250,4 L 248,4 L 247,5 L 246,5 L 245,6 L 244,6 L 243,7 L 242,7 L 241,8 L 240,8 L 239,9 L 238,9 L 237,10 L 236,10 L 235,11 L 234,11 L 233,12 L 232,12 L 230,14 L 229,14 L 228,15 L 227,15 L 226,16 L 225,16 L 224,17 L 223,17 L 222,18 L 221,18 L 220,19 L 219,19 L 218,20 L 217,20 L 215,22 L 214,22 L 213,23 L 212,23 L 211,24 L 210,24 L 209,25 L 208,25 L 207,26 L 206,26 L 204,28 L 203,28 L 202,29 L 201,29 L 200,30 L 199,30 L 198,31 L 197,31 L 195,33 L 194,33 L 193,34 L 192,34 L 191,35 L 190,35 L 189,36 L 188,36 L 186,38 L 185,38 L 184,39 L 183,39 L 181,41 L 180,41 L 179,42 L 178,42 L 176,44 L 175,44 L 174,45 L 173,45 L 172,46 L 171,46 L 169,48 L 168,48 L 167,49 L 166,49 L 164,51 L 163,51 L 161,53 L 160,53 L 158,55 L 157,55 L 155,57 L 154,57 L 147,64 L 147,65 L 145,67 L 145,68 L 143,70 L 143,71 L 141,73 L 141,74 L 140,75 L 140,76 L 138,78 L 138,79 L 137,80 L 137,81 L 136,82 L 136,83 L 135,84 L 135,86 L 132,89 L 132,90 L 129,93 L 129,94 L 123,100 L 122,100 L 118,104 L 117,104 L 114,107 L 113,107 L 111,109 L 110,109 L 108,111 L 107,111 L 106,112 L 105,112 L 103,114 L 102,114 L 100,116 L 99,116 L 98,117 L 97,117 L 96,118 L 95,118 L 93,120 L 92,120 L 91,121 L 90,121 L 88,123 L 87,123 L 86,124 L 85,124 L 84,125 L 83,125 L 81,127 L 80,127 L 79,128 L 78,128 L 77,129 L 76,129 L 75,130 L 74,130 L 72,132 L 71,132 L 70,133 L 69,133 L 68,134 L 67,134 L 66,135 L 65,135 L 64,136 L 63,136 L 61,138 L 60,138 L 59,139 L 58,139 L 57,140 L 56,140 L 55,141 L 54,141 L 53,142 L 52,142 L 51,143 L 50,143 L 49,144 L 48,144 L 47,145 L 46,145 L 45,146 L 44,146 L 43,147 L 42,147 L 41,148 L 40,148 L 39,149 L 38,149 L 37,150 L 36,150 L 35,151 L 34,151 L 33,152 L 32,152 L 31,153 L 31,156 L 30,157 L 30,160 L 29,161 L 29,205 L 28,206 L 28,250 L 27,251 L 27,271 L 28,272 L 19,281 L 19,282 L 10,291 L 10,292 L 8,294 L 8,295 L 7,296 L 7,297 L 6,298 L 6,299 L 5,300 L 5,301 L 4,302 L 4,303 L 3,304 L 3,306 L 2,307 L 2,310 L 1,311 L 1,315 L 0,316 L 0,321 L 0,316 L 1,315 L 1,311 L 2,310 L 2,307 L 3,306 L 3,304 L 4,303 L 4,302 L 5,301 L 5,300 L 6,299 L 6,298 L 7,297 L 7,296 L 9,294 L 9,293 L 19,283 L 19,282 L 29,272 L 30,272 L 31,271 L 32,271 L 33,270 L 34,270 L 35,269 L 36,269 L 37,268 L 38,268 L 39,267 L 40,267 L 41,266 L 42,266 L 43,265 L 44,265 L 45,264 L 46,264 L 47,263 L 48,263 L 49,262 L 50,262 L 51,261 L 52,261 L 53,260 L 54,260 L 55,259 L 56,259 L 57,258 L 58,258 L 59,257 L 60,257 L 61,256 L 62,256 L 63,255 L 64,255 L 65,254 L 66,254 L 67,253 L 68,253 L 69,252 L 70,252 L 71,251 L 71,250 L 71,251 L 70,252 L 69,252 L 68,253 L 67,253 L 66,254 L 65,254 L 64,255 L 63,255 L 62,256 L 61,256 L 60,257 L 59,257 L 58,258 L 57,258 L 56,259 L 55,259 L 54,260 L 53,260 L 52,261 L 51,261 L 50,262 L 49,262 L 48,263 L 47,263 L 46,264 L 45,264 L 44,265 L 43,265 L 42,266 L 41,266 L 40,267 L 39,267 L 38,268 L 37,268 L 36,269 L 35,269 L 34,270 L 33,270 L 32,271 L 31,271 L 30,272 L 28,272 L 27,271 L 27,251 L 28,250 L 28,206 L 29,205 L 29,161 L 30,160 L 30,157 L 31,156 L 31,153 L 32,152 L 33,152 L 34,151 L 35,151 L 36,150 L 37,150 L 38,149 L 39,149 L 40,148 L 41,148 L 42,147 L 43,147 L 44,146 L 45,146 L 46,145 L 47,145 L 48,144 L 49,144 L 50,143 L 51,143 L 52,142 L 53,142 L 54,141 L 55,141 L 56,140 L 57,140 L 58,139 L 59,139 L 60,138 L 61,138 L 62,137 L 63,137 L 65,135 L 66,135 L 67,134 L 68,134 L 69,133 L 71,133 L 73,131 L 74,131 L 76,129 L 77,129 L 78,128 L 79,128 L 80,127 L 81,127 L 82,126 L 83,126 L 85,124 L 86,124 L 87,123 L 88,123 L 89,122 L 90,122 L 92,120 L 93,120 L 94,119 L 95,119 L 97,117 L 98,117 L 99,116 L 100,116 L 101,115 L 102,115 L 104,113 L 105,113 L 107,111 L 108,111 L 109,110 L 110,110 L 112,108 L 113,108 L 115,106 L 116,106 L 119,103 L 120,103 L 124,99 L 125,99 L 128,96 L 128,95 L 130,93 L 131,94 L 131,100 L 132,101 L 132,103 L 133,104 L 132,105 L 132,138 L 133,139 L 133,140 L 134,141 L 133,142 L 133,144 L 131,146 L 130,146 L 129,147 L 128,147 L 127,148 L 126,148 L 125,149 L 124,149 L 123,150 L 122,150 L 121,151 L 120,151 L 119,152 L 118,152 L 117,153 L 115,153 L 114,154 L 113,154 L 112,155 L 111,155 L 110,156 L 109,156 L 108,157 L 107,157 L 106,158 L 105,158 L 104,159 L 103,159 L 102,160 L 101,160 L 100,161 L 99,161 L 98,162 L 97,162 L 96,163 L 95,163 L 94,164 L 93,164 L 92,165 L 91,165 L 90,166 L 89,166 L 88,167 L 87,167 L 86,168 L 85,168 L 84,169 L 83,169 L 82,170 L 81,170 L 80,171 L 79,171 L 78,172 L 77,172 L 76,173 L 75,173 L 74,174 L 73,174 L 72,175 L 71,175 L 70,176 L 69,176 L 68,177 L 67,177 L 66,178 L 65,178 L 65,227 L 66,228 L 66,237 L 67,238 L 67,241 L 68,242 L 68,243 L 69,244 L 69,245 L 72,248 L 74,248 L 75,249 L 77,249 L 78,248 L 82,248 L 83,247 L 85,247 L 86,246 L 87,246 L 88,245 L 90,245 L 91,244 L 92,244 L 93,243 L 94,243 L 95,242 L 96,242 L 97,241 L 98,241 L 99,240 L 101,240 L 102,239 L 103,239 L 104,238 L 106,238 L 107,237 L 109,237 L 110,236 L 112,236 L 113,235 L 115,235 L 116,234 L 124,234 L 125,235 L 127,235 L 128,236 L 129,236 L 130,237 L 132,237 L 133,238 L 134,238 L 135,239 L 137,239 L 138,240 L 139,240 L 140,241 L 141,241 L 142,242 L 144,242 L 145,243 L 146,243 L 147,244 L 148,244 L 149,245 L 150,245 L 151,246 L 152,246 L 153,247 L 154,247 L 155,248 L 156,248 L 157,249 L 158,249 L 159,250 L 161,250 L 162,251 L 163,251 L 164,252 L 165,252 L 166,253 L 167,253 L 168,254 L 169,254 L 170,255 L 171,255 L 173,257 L 174,257 L 175,258 L 176,258 L 177,259 L 178,259 L 179,260 L 180,260 L 181,261 L 182,261 L 183,262 L 184,262 L 185,263 L 186,263 L 187,264 L 188,264 L 189,265 L 190,265 L 191,266 L 192,266 L 194,268 L 195,268 L 196,269 L 197,269 L 198,270 L 199,270 L 200,271 L 201,271 L 202,272 L 203,272 L 204,273 L 205,273 L 207,275 L 208,275 L 209,276 L 210,276 L 211,277 L 212,277 L 213,278 L 214,278 L 215,279 L 216,279 L 218,281 L 219,281 L 220,282 L 221,282 L 222,283 L 223,283 L 224,284 L 225,284 L 227,286 L 228,286 L 229,287 L 230,287 L 231,288 L 232,288 L 233,289 L 234,289 L 236,291 L 237,291 L 238,292 L 239,292 L 240,293 L 241,293 L 242,294 L 242,310 L 241,311 L 241,345 L 240,346 L 240,377 L 239,378 L 239,397 L 238,398 L 238,411 L 237,412 L 237,420 L 236,421 L 236,426 L 235,427 L 235,428 L 233,430 L 232,430 L 231,431 L 230,431 L 228,433 L 227,433 L 226,434 L 225,434 L 223,436 L 222,436 L 220,438 L 219,438 L 217,440 L 216,440 L 213,443 L 212,443 L 210,445 L 209,445 L 205,449 L 204,449 L 202,451 L 201,451 L 199,453 L 198,453 L 196,455 L 196,456 L 197,457 L 199,457 L 201,459 L 202,459 L 203,460 L 204,460 L 205,461 L 206,461 L 208,463 L 209,463 L 210,464 L 211,464 L 212,465 L 213,465 L 215,467 L 216,467 L 217,468 L 218,468 L 219,469 L 220,469 L 222,471 L 223,471 L 224,472 L 225,472 L 226,473 L 227,473 L 228,474 L 229,474 L 230,475 L 231,475 L 233,477 L 234,477 L 235,478 L 237,478 L 238,479 L 239,479 L 240,480 L 241,480 L 242,481 L 243,481 L 244,482 L 245,482 L 246,483 L 247,483 L 248,484 L 250,484 L 251,485 L 252,485 L 253,486 L 255,486 L 256,487 L 257,487 L 258,488 L 259,488 L 260,489 L 260,490 L 259,491 L 259,526 L 258,527 L 258,529 L 258,527 L 259,526 L 259,491 L 260,490 L 260,489 L 262,487 L 263,487 L 264,486 L 266,486 L 267,485 L 269,485 L 270,484 L 272,484 L 273,483 L 274,483 L 275,482 L 276,482 L 277,481 L 279,481 L 280,480 L 281,480 L 282,479 L 283,479 L 284,478 L 285,478 L 286,477 L 287,477 L 288,476 L 289,476 L 290,475 L 291,475 L 292,474 L 293,474 L 294,473 L 295,473 L 296,472 L 297,472 L 299,470 L 300,470 L 301,469 L 302,469 L 303,468 L 304,468 L 305,467 L 306,467 L 308,465 L 309,465 L 310,464 L 311,464 L 312,463 L 313,463 L 314,462 L 315,462 L 317,460 L 318,460 L 319,459 L 320,459 L 321,458 L 322,458 L 325,455 L 328,455 L 330,457 L 331,457 L 332,458 L 333,458 L 334,459 L 335,459 L 337,461 L 338,461 L 339,462 L 340,462 L 341,463 L 342,463 L 344,465 L 345,465 L 346,466 L 347,466 L 349,468 L 350,468 L 351,469 L 352,469 L 353,470 L 354,470 L 356,472 L 357,472 L 358,473 L 359,473 L 360,474 L 361,474 L 363,476 L 364,476 L 365,477 L 366,477 L 368,479 L 369,479 L 371,481 L 371,482 L 370,483 L 368,483 L 367,484 L 365,484 L 364,485 L 362,485 L 361,486 L 359,486 L 358,487 L 357,487 L 356,488 L 355,488 L 354,489 L 352,489 L 351,490 L 350,490 L 349,491 L 348,491 L 347,492 L 346,492 L 345,493 L 344,493 L 343,494 L 342,494 L 341,495 L 339,495 L 338,496 L 337,496 L 336,497 L 335,497 L 334,498 L 333,498 L 332,499 L 331,499 L 330,500 L 329,500 L 328,501 L 327,501 L 326,502 L 325,502 L 324,503 L 323,503 L 322,504 L 321,504 L 320,505 L 319,505 L 318,506 L 317,506 L 316,507 L 315,507 L 314,508 L 313,508 L 312,509 L 311,509 L 310,510 L 309,510 L 308,511 L 307,511 L 306,512 L 304,512 L 303,513 L 302,513 L 301,514 L 300,514 L 299,515 L 298,515 L 297,516 L 296,516 L 295,517 L 294,517 L 293,518 L 292,518 L 291,519 L 290,519 L 289,520 L 288,520 L 287,521 L 285,521 L 284,522 L 283,522 L 282,523 L 281,523 L 280,524 L 279,524 L 278,525 L 276,525 L 275,526 L 274,526 L 273,527 L 272,527 L 271,528 L 269,528 L 268,529 L 267,529 L 266,530 L 264,530 L 263,531 L 264,530 L 266,530 L 267,529 L 268,529 L 269,528 L 271,528 L 272,527 L 273,527 L 274,526 L 275,526 L 276,525 L 278,525 L 279,524 L 280,524 L 281,523 L 282,523 L 283,522 L 284,522 L 285,521 L 287,521 L 288,520 L 289,520 L 290,519 L 291,519 L 292,518 L 293,518 L 294,517 L 295,517 L 296,516 L 297,516 L 298,515 L 299,515 L 300,514 L 301,514 L 302,513 L 303,513 L 304,512 L 306,512 L 307,511 L 308,511 L 309,510 L 310,510 L 311,509 L 312,509 L 313,508 L 314,508 L 315,507 L 316,507 L 317,506 L 318,506 L 319,505 L 320,505 L 321,504 L 322,504 L 323,503 L 324,503 L 325,502 L 326,502 L 327,501 L 328,501 L 329,500 L 330,500 L 331,499 L 332,499 L 333,498 L 334,498 L 335,497 L 336,497 L 337,496 L 338,496 L 339,495 L 341,495 L 342,494 L 343,494 L 344,493 L 345,493 L 346,492 L 347,492 L 348,491 L 349,491 L 350,490 L 351,490 L 352,489 L 354,489 L 355,488 L 356,488 L 357,487 L 358,487 L 359,486 L 361,486 L 362,485 L 364,485 L 365,484 L 367,484 L 368,483 L 372,483 L 373,482 L 384,482 L 385,483 L 394,483 L 395,484 L 404,484 L 405,483 L 412,483 L 413,482 L 416,482 L 417,481 L 419,481 L 420,480 L 421,480 L 422,479 L 424,479 L 425,478 L 426,478 L 427,477 L 429,477 L 430,476 L 431,476 L 432,475 L 433,475 L 434,474 L 435,474 L 436,473 L 437,473 L 438,472 L 439,472 L 440,471 L 441,471 L 442,470 L 443,470 L 444,469 L 445,469 L 446,468 L 447,468 L 448,467 L 449,467 L 450,466 L 451,466 L 453,464 L 454,464 L 455,463 L 456,463 L 457,462 L 458,462 L 459,461 L 460,461 L 461,460 L 462,460 L 464,458 L 465,458 L 466,457 L 467,457 L 468,456 L 469,456 L 470,455 L 471,455 L 472,454 L 473,454 L 475,452 L 476,452 L 477,451 L 478,451 L 479,450 L 480,450 L 481,449 L 482,449 L 484,447 L 485,447 L 486,446 L 487,446 L 488,445 L 489,445 L 490,444 L 491,444 L 493,442 L 494,442 L 495,441 L 496,441 L 497,440 L 498,440 L 499,439 L 500,439 L 502,437 L 503,437 L 504,436 L 505,436 L 506,435 L 507,435 L 508,434 L 509,434 L 511,432 L 512,432 L 513,431 L 514,431 L 515,430 L 516,430 L 518,428 L 518,422 L 519,421 L 519,407 L 520,406 L 520,392 L 521,391 L 521,374 L 522,373 L 521,374 L 521,391 L 520,392 L 520,406 L 519,407 L 519,421 L 518,422 L 518,428 L 517,429 L 516,429 L 514,431 L 513,431 L 512,432 L 511,432 L 510,433 L 509,433 L 508,434 L 507,434 L 505,436 L 504,436 L 503,437 L 502,437 L 501,438 L 500,438 L 498,440 L 497,440 L 496,441 L 495,441 L 494,442 L 493,442 L 492,443 L 491,443 L 489,445 L 488,445 L 487,446 L 486,446 L 485,447 L 484,447 L 483,448 L 482,448 L 480,450 L 479,450 L 478,451 L 477,451 L 476,452 L 475,452 L 474,453 L 473,453 L 471,455 L 470,455 L 469,456 L 468,456 L 467,457 L 466,457 L 465,458 L 464,458 L 463,459 L 462,459 L 460,461 L 459,461 L 458,462 L 457,462 L 456,463 L 455,463 L 454,464 L 453,464 L 452,465 L 451,465 L 449,467 L 448,467 L 447,468 L 446,468 L 445,469 L 444,469 L 443,470 L 442,470 L 441,471 L 440,471 L 439,472 L 438,472 L 437,473 L 436,473 L 435,474 L 434,474 L 433,475 L 432,475 L 431,476 L 430,476 L 429,477 L 427,477 L 426,478 L 425,478 L 424,479 L 422,479 L 421,480 L 420,480 L 419,481 L 417,481 L 416,482 L 413,482 L 412,483 L 405,483 L 404,484 L 395,484 L 394,483 L 385,483 L 384,482 L 373,482 L 372,483 L 371,482 L 371,480 L 370,480 L 368,478 L 367,478 L 366,477 L 365,477 L 363,475 L 362,475 L 361,474 L 360,474 L 359,473 L 358,473 L 356,471 L 355,471 L 354,470 L 353,470 L 352,469 L 351,469 L 349,467 L 348,467 L 347,466 L 346,466 L 344,464 L 343,464 L 342,463 L 341,463 L 340,462 L 339,462 L 337,460 L 336,460 L 335,459 L 334,459 L 333,458 L 332,458 L 330,456 L 329,456 L 328,455 L 325,455 L 321,451 L 320,451 L 317,448 L 316,448 L 313,445 L 312,445 L 310,443 L 309,443 L 307,441 L 306,441 L 304,439 L 303,439 L 301,437 L 300,437 L 297,434 L 296,434 L 294,432 L 293,432 L 291,430 L 290,430 L 288,428 L 287,428 L 283,424 L 283,293 L 287,289 L 288,289 L 289,288 L 290,288 L 291,287 L 292,287 L 293,286 L 294,286 L 295,285 L 296,285 L 297,284 L 298,284 L 299,283 L 300,283 L 301,282 L 302,282 L 304,280 L 305,280 L 306,279 L 307,279 L 308,278 L 309,278 L 310,277 L 311,277 L 312,276 L 313,276 L 314,275 L 315,275 L 316,274 L 317,274 L 318,273 L 319,273 L 320,272 L 321,272 L 323,270 L 324,270 L 325,269 L 326,269 L 327,268 L 328,268 L 329,267 L 330,267 L 331,266 L 332,266 L 333,265 L 334,265 L 335,264 L 336,264 L 337,263 L 338,263 L 339,262 L 340,262 L 341,261 L 342,261 L 343,260 L 344,260 L 346,258 L 348,258 L 350,256 L 351,256 L 352,255 L 353,255 L 354,254 L 355,254 L 356,253 L 357,253 L 358,252 L 359,252 L 360,251 L 361,251 L 362,250 L 364,250 L 365,249 L 366,249 L 367,248 L 368,248 L 369,247 L 370,247 L 371,246 L 372,246 L 373,245 L 374,245 L 375,244 L 376,244 L 377,243 L 378,243 L 379,242 L 381,242 L 382,241 L 383,241 L 384,240 L 385,240 L 386,239 L 387,239 L 388,238 L 390,238 L 391,237 L 392,237 L 393,236 L 395,236 L 396,235 L 398,235 L 399,234 L 405,234 L 406,235 L 408,235 L 409,236 L 411,236 L 412,237 L 414,237 L 415,238 L 417,238 L 418,239 L 420,239 L 421,240 L 422,240 L 423,241 L 424,241 L 425,242 L 427,242 L 428,243 L 429,243 L 430,244 L 431,244 L 432,245 L 433,245 L 434,246 L 436,246 L 437,247 L 439,247 L 440,248 L 446,248 L 447,249 L 448,248 L 449,248 L 453,244 L 453,242 L 454,241 L 454,239 L 455,238 L 455,234 L 456,233 L 456,228 L 457,227 L 457,219 L 458,218 L 458,211 L 459,210 L 459,187 L 458,186 L 458,184 L 456,182 L 456,181 L 452,177 L 451,177 L 449,175 L 448,175 L 447,174 L 446,174 L 444,172 L 443,172 L 442,171 L 441,171 L 440,170 L 439,170 L 438,169 L 437,169 L 436,168 L 435,168 L 434,167 L 433,167 L 432,166 L 431,166 L 430,165 L 429,165 L 428,164 L 427,164 L 426,163 L 425,163 L 424,162 L 423,162 L 422,161 L 421,161 L 420,160 L 419,160 L 418,159 L 417,159 L 416,158 L 415,158 L 414,157 L 413,157 L 412,156 L 411,156 L 410,155 L 409,155 L 408,154 L 407,154 L 406,153 L 405,153 L 404,152 L 403,152 L 402,151 L 401,151 L 400,150 L 399,150 L 398,149 L 397,149 L 396,148 L 395,148 L 394,147 L 393,147 L 392,146 L 391,146 L 388,143 L 387,143 L 386,142 L 386,134 L 385,133 L 385,113 L 384,112 L 384,91 L 383,90 L 383,88 L 385,86 L 384,85 L 383,85 L 383,86 L 384,87 L 383,88 L 383,90 L 384,91 L 384,112 L 385,113 L 385,133 L 386,134 L 386,142 L 387,143 L 388,143 L 389,144 L 389,145 L 388,146 L 388,147 L 387,148 L 387,153 L 386,154 L 386,161 L 385,162 L 385,170 L 384,171 L 384,177 L 383,178 L 383,182 L 382,183 L 382,185 L 381,186 L 381,187 L 379,189 L 379,190 L 370,199 L 369,199 L 366,202 L 365,202 L 362,205 L 361,205 L 360,206 L 359,206 L 357,208 L 356,208 L 355,209 L 354,209 L 352,211 L 351,211 L 350,212 L 349,212 L 348,213 L 347,213 L 345,215 L 344,215 L 343,216 L 342,216 L 341,217 L 340,217 L 339,218 L 338,218 L 337,219 L 336,219 L 334,221 L 333,221 L 332,222 L 331,222 L 330,223 L 329,223 L 328,224 L 327,224 L 326,225 L 325,225 L 324,226 L 323,226 L 322,227 L 321,227 L 320,228 L 319,228 L 318,229 L 317,229 L 316,230 L 315,230 L 314,231 L 313,231 L 312,232 L 311,232 L 310,233 L 309,233 L 308,234 L 307,234 L 305,236 L 304,236 L 303,237 L 302,237 L 301,238 L 300,238 L 299,239 L 298,239 L 297,240 L 296,240 L 295,241 L 294,241 L 293,242 L 292,242 L 291,243 L 290,243 L 289,244 L 288,244 L 287,245 L 286,245 L 285,246 L 284,246 L 283,247 L 282,247 L 281,248 L 280,248 L 279,249 L 278,249 L 277,250 L 276,250 L 275,251 L 274,251 L 273,252 L 272,252 L 271,253 L 270,253 L 269,254 L 268,254 L 266,256 L 265,256 L 264,257 L 263,257 L 262,258 L 261,258 L 260,259 L 257,259 L 256,258 L 255,258 L 254,257 L 253,257 L 252,256 L 251,256 L 250,255 L 249,255 L 247,253 L 246,253 L 245,252 L 244,252 L 243,251 L 242,251 L 241,250 L 240,250 L 239,249 L 238,249 L 236,247 L 235,247 L 234,246 L 233,246 L 232,245 L 231,245 L 230,244 L 229,244 L 227,242 L 226,242 L 225,241 L 224,241 L 223,240 L 222,240 L 221,239 L 220,239 L 219,238 L 218,238 L 216,236 L 215,236 L 214,235 L 213,235 L 212,234 L 211,234 L 210,233 L 209,233 L 207,231 L 206,231 L 205,230 L 204,230 L 203,229 L 202,229 L 200,227 L 199,227 L 198,226 L 197,226 L 196,225 L 195,225 L 194,224 L 193,224 L 191,222 L 190,222 L 189,221 L 188,221 L 187,220 L 186,220 L 184,218 L 183,218 L 182,217 L 181,217 L 179,215 L 178,215 L 176,213 L 175,213 L 174,212 L 173,212 L 171,210 L 170,210 L 168,208 L 167,208 L 164,205 L 163,205 L 160,202 L 159,202 L 146,189 L 146,188 L 144,186 L 144,185 L 143,184 L 143,183 L 142,182 L 142,181 L 141,180 L 141,179 L 140,178 L 140,175 L 139,174 L 139,172 L 138,171 L 138,166 L 137,165 L 137,159 L 136,158 L 136,153 L 135,152 L 135,149 L 134,148 L 134,145 L 133,144 L 133,142 L 134,141 L 133,140 L 133,139 L 132,138 L 132,105 L 133,104 L 132,103 L 132,101 L 131,100 L 131,94 L 130,93 L 132,91 L 132,90 L 134,88 L 134,87 L 135,86 L 135,84 L 136,83 L 136,82 L 137,81 L 137,80 L 139,78 L 139,77 L 140,76 L 140,75 L 142,73 L 142,72 L 144,70 L 144,69 L 146,67 L 146,66 L 156,56 L 157,56 L 159,54 L 160,54 L 162,52 L 163,52 L 165,50 L 166,50 L 167,49 L 168,49 L 170,47 L 171,47 L 173,45 L 174,45 L 175,44 L 176,44 L 177,43 L 178,43 L 180,41 L 181,41 L 182,40 L 183,40 L 185,38 L 186,38 L 187,37 L 188,37 L 189,36 L 190,36 L 192,34 L 193,34 L 194,33 L 195,33 L 196,32 L 197,32 L 198,31 L 199,31 L 201,29 L 202,29 L 203,28 L 204,28 L 205,27 L 206,27 L 208,25 L 209,25 L 210,24 L 211,24 L 212,23 L 213,23 L 214,22 L 215,22 L 216,21 L 217,21 L 219,19 L 220,19 L 221,18 L 222,18 L 223,17 L 224,17 L 225,16 L 226,16 L 227,15 L 228,15 L 229,14 L 230,14 L 231,13 L 232,13 L 234,11 L 235,11 L 236,10 L 238,10 L 240,8 L 241,8 L 242,7 L 243,7 L 244,6 L 245,6 L 246,5 L 247,5 L 248,4 L 250,4 L 251,3 L 252,3 L 253,2 L 254,2 L 255,1 L 256,1 L 257,0 L 258,0 Z" fill="none" stroke="white" stroke-width="2" /></svg>